<svg id="b6eb4cbd-fe96-40ff-a30e-cf788f83deb2" data-name="Layer 1" xmlns="http://www.w3.org/2000/svg" viewBox="0 0 1555 1070"><defs><style>.e0eec9bd-4589-4718-9577-cc83ae9a86dc{fill:#fff;}.a2c7695f-70be-4053-a086-9c00abffe184{fill:#307201;}.bf745590-a28b-4665-a08b-9c191697ad21{fill:#094a91;}</style></defs><path class="e0eec9bd-4589-4718-9577-cc83ae9a86dc" d="M827.761,1067.089,1075,1034.238C1039.619,903.106,900.24,811.511,763.691,829.654ZM936.1,904.427c31.352,20.882,41.93,60.086,23.628,87.565s-58.554,32.828-89.906,11.946-41.931-60.085-23.629-87.565S904.748,883.546,936.1,904.427Z"/><ellipse class="e0eec9bd-4589-4718-9577-cc83ae9a86dc" cx="290.816" cy="318.913" rx="81" ry="70.5"/><path class="a2c7695f-70be-4053-a086-9c00abffe184" d="M850.913,166.943l5.22-8.366C957.26,170.985,946,89.166,915.635,44.6l5.221-8.365C994.573,76.431,977.185,223.969,850.913,166.943Z"/><path class="bf745590-a28b-4665-a08b-9c191697ad21" d="M893.384,741.235l3.709,2.47c-6.96,45.515,30.15,41.522,50.687,28.4l3.709,2.47C932.345,807.342,865.932,797.51,893.384,741.235Z"/><polygon points="804.816 351.413 809.155 396.403 847.035 371.744 814.566 403.188 857.462 417.429 812.635 411.648 828.246 454.065 804.816 415.413 781.387 454.065 796.998 411.648 752.17 417.429 795.067 403.188 762.597 371.744 800.477 396.403 804.816 351.413"/><path d="M1219.205,447.47c-16.551-7.37-33.309-15.105-49.516-22.584-56.769-26.2-115.471-53.3-176.728-70.039-23.674-6.471-48.1-11.493-71.721-16.348-16.793-3.452-34.158-7.022-51.1-11.08-21.955-5.262-44.073-11.555-65.463-17.642-35.912-10.217-73.048-20.784-110.555-26.794-24.873-3.985-50.42-6.047-75.126-8.041-33.128-2.673-67.385-5.438-100.266-12.882-36.167-8.191-71.212-22.135-105.1-35.621-5.248-2.088-11.2-4.456-14.883-9.073-4.171-5.222-4.8-12.449-5.413-19.437q-.107-1.233-.219-2.451c-5.062-53.545-44.76-105.027-103.6-134.353C238.572,35.734,182.082,27.973,118.847,21.092l-5-.543C76.008,16.442,37.305,12.232.184,2.911V5.834c37.08,9.245,75.645,13.439,113.354,17.532l5,.544c62.96,6.851,119.187,14.57,169.711,39.752,45.435,22.645,96.1,69.234,102.043,132.084.077.8.147,1.615.219,2.43.646,7.407,1.315,15.067,6.022,20.96,4.155,5.2,10.75,7.828,16.049,9.937,33.992,13.526,69.141,27.512,105.524,35.75,33.078,7.49,67.437,10.263,100.664,12.945,24.652,1.989,50.142,4.046,74.906,8.014,37.341,5.984,74.394,16.527,110.227,26.722,21.418,6.095,43.566,12.4,65.578,17.671,16.984,4.07,34.371,7.644,51.187,11.1,23.577,4.847,47.957,9.859,71.543,16.306,61.031,16.683,119.624,43.726,176.288,69.878,16.215,7.484,32.983,15.223,49.551,22.6,109.1,48.581,223.214,87.563,336.764,123.249v-2.972C1441.626,534.748,1327.9,495.872,1219.205,447.47Z"/><path d="M1001.413,623.017C769.407,694.317,560.228,734.611,361.922,746.2l-6.367.369c-59.581,3.437-121.192,6.99-167.536,43.167-24.9,19.437-42.434,46.546-59.39,72.762-4.945,7.646-10.059,15.553-15.264,23.123C82.663,930.273,43.572,968.471.184,996.269v3.363c44.315-28.08,84.242-66.921,115.517-112.4,5.228-7.6,10.352-15.526,15.308-23.188,16.828-26.02,34.23-52.924,58.754-72.067,45.647-35.633,106.808-39.161,165.955-42.572l6.369-.369c198.535-11.6,407.933-51.937,640.159-123.3,188.878-58.047,376.025-131.453,552.57-204.435v-3.067C1378.02,491.327,1190.57,564.885,1001.413,623.017Z"/></svg>