<svg height="614" viewBox="0 0 1371 614" width="1371" xmlns="http://www.w3.org/2000/svg"><path d="m1056.724 189.587 4.339 44.991 37.88-24.659-32.469 31.443 42.896 14.242-44.827-5.782 15.611 42.418-23.43-38.653-23.429 38.653 15.611-42.418-44.828 5.782 42.897-14.242-32.47-31.443 37.88 24.659z" fill="#383838"/><g fill="#e9e6dc"><path d="m1376 432.394c-19.4-4.065-38.727-8.5-58.044-12.928-60.928-13.977-120.29-33.108-180.835-48.479-61.271-15.555-122.775-20.947-185.8-23.019-62.309-2.05-124.192-3.724-184.739-20.168-58.14-15.79-115.074-42.244-165.384-75.353-12.482-8.214-24.275-17.4-37.029-25.2a394.3 394.3 0 0 0 -38.964-20.524c-28.085-13.136-56.33-26.373-83.179-41.918a883.96 883.96 0 0 0 -80.8-41.71c-13.189-5.926-27.018-10.151-40.442-15.486-14.043-5.588-27.658-11.478-42.084-16.109-29.47-9.459-57.578-22.477-87.033-32.08-29.631-9.66-59.183-16.325-89.817-21.852-14.434-2.6-28.27-3.429-42.855-4.293-15.382-.911-30.073-5.906-44.625-10.594-9.215-2.968-18.54-5.5-27.879-8v2.81c6.1 1.692 12.173 3.465 18.157 5.294 14.327 4.379 28.437 9.755 43.267 12.24 14.871 2.493 29.949 1.5 44.9 4.02 15.646 2.634 31.353 5.3 46.858 8.673 30.257 6.588 60.213 16.823 89.018 28.11 58.292 22.842 117.75 42.22 173.909 70.272 27.227 13.6 52.887 30.061 80.194 43.607 27.58 13.681 56.348 25.423 82.491 41.807 26 16.3 50.2 34.459 77.427 48.9 25.71 13.639 52.219 26.144 79.5 36.314 56.893 21.2 115.81 29.873 176.215 32.455 64.9 2.776 130.144 2.354 194.166 14.832 61.585 12 120.931 32.854 181.655 48.291 33.746 8.579 67.7 15.774 101.747 22.492z"/><path d="m1376 313.849c-160.309 65.307-328.2 129.5-497.447 181.517-229.553 70.545-437.044 111.126-633.769 123.944h38.893c185.453-15.4 380.951-55.195 595.72-121.2 168.963-51.925 336.558-115.979 496.6-181.159z"/></g></svg>