<svg id="f80f4dc4-2571-4bb8-82ba-909547ac1e44" data-name="Layer 1" xmlns="http://www.w3.org/2000/svg" viewBox="0 0 398 270"><defs><style>.b3438e8b-7004-4596-b7e8-2054d2b6af8b{fill:#fbea7c;}.f9eb504a-f900-4b62-95cf-daba4f2653ff{fill:#b91719;}.b262ce0e-71da-41d5-a66d-7c284797e7a7{fill:#094a91;}</style></defs><path class="b3438e8b-7004-4596-b7e8-2054d2b6af8b" d="M175.008,50.084C122.28,14.965,52.313,27.368,18.732,77.787S.673,197.547,53.4,232.666s122.7,22.716,156.276-27.7S227.736,85.2,175.008,50.084Zm-99.774,75.79-19.792-6.535-6.506-8.357,14.853-22.3,7.431.926,17.656,15.783ZM169.2,188.461l-8.767-3.215-16.725-11.14,14.853-22.3L179.9,161.993l3.872,4.592Z"/><path class="f9eb504a-f900-4b62-95cf-daba4f2653ff" d="M364.165,102.352l-166.131,33.3C216.168,226.122,305.249,284.551,397,266.16ZM285.21,220.9a43.567,43.567,0,1,1,60.411-12.11A43.567,43.567,0,0,1,285.21,220.9Z"/><path class="b262ce0e-71da-41d5-a66d-7c284797e7a7" d="M205.2.457l3.9,2.6c-7.321,47.878,31.715,43.678,53.317,29.88l3.9,2.6C246.183,70,176.322,59.654,205.2.457Z"/></svg>